<?xml version="1.0" encoding="UTF-8"?>
<svg version="1.1" xmlns="http://www.w3.org/2000/svg" width="512" height="512">
<path d="M0 0 C0.31453125 1.13695312 0.6290625 2.27390625 0.953125 3.4453125 C1.38538753 5.00521641 1.8176809 6.56511177 2.25 8.125 C2.45496094 8.86621094 2.65992188 9.60742188 2.87109375 10.37109375 C4.87361416 17.59230371 6.93516991 24.79641146 9 32 C9.54457352 31.77227402 10.08914703 31.54454803 10.65022278 31.30992126 C16.30677364 28.94669332 21.96872495 26.59679278 27.6340332 24.25463867 C29.7490631 23.37818224 31.86268077 22.49830991 33.97485352 21.61499023 C37.0069494 20.34764389 40.04387247 19.09257352 43.08203125 17.83984375 C44.02899368 17.44095444 44.97595612 17.04206512 45.95161438 16.63108826 C46.83230087 16.27063919 47.71298737 15.91019012 48.62036133 15.53881836 C49.39535477 15.21682968 50.17034821 14.894841 50.96882629 14.56309509 C53 14 53 14 56 15 C56.85429382 17.08091736 56.85429382 17.08091736 57.53393555 19.85522461 C57.79397873 20.8897728 58.05402191 21.92432098 58.32194519 22.99021912 C58.59082047 24.11622025 58.85969574 25.24222137 59.13671875 26.40234375 C59.42102249 27.55037979 59.70532623 28.69841583 59.99824524 29.88124084 C60.90677128 33.56380576 61.79698291 37.25054351 62.6875 40.9375 C63.29899907 43.42150269 63.91161489 45.90523075 64.52539062 48.38867188 C65.64148977 52.92934356 66.75666415 57.47019473 67.85424805 62.01538086 C68.18709053 63.38985634 68.18709053 63.38985634 68.5266571 64.792099 C69 67 69 67 69 69 C69.96188232 68.98428955 70.92376465 68.9685791 71.91479492 68.95239258 C75.54719377 68.89732716 79.17955731 68.86337718 82.81225586 68.83520508 C84.3725407 68.82029024 85.93278494 68.79995099 87.49291992 68.77368164 C106.68213104 68.45910441 122.48693795 71.88685852 136.78515625 85.62890625 C145.63845477 95.10677609 152.20951314 107.4222563 151.91967773 120.671875 C151.8422159 122.03132081 151.76345906 123.39069327 151.68359375 124.75 C150.23994462 141.90431817 150.23994462 141.90431817 156.5078125 156.99609375 C160.192546 160.11296463 164.25907818 162.45260014 168.53564453 164.66552734 C172.4837536 166.80346713 175.95284565 169.51340323 179.5 172.25 C180.1592749 172.74282471 180.8185498 173.23564941 181.49780273 173.7434082 C194.29720704 183.362776 204.27895943 194.76007226 207 211 C207.63667264 218.04993842 207.57630134 225.12921721 207.52148438 232.20166016 C207.50004389 235.49326251 207.52136302 238.7826827 207.546875 242.07421875 C207.57277686 261.43206057 204.25407709 276.08930932 190.6015625 290.609375 C181.26814071 299.18603287 169.12430225 305.1483976 156.28222656 305.03710938 C155.4783551 305.03175171 154.67448364 305.02639404 153.84625244 305.02087402 C153.23698914 305.0139856 152.62772583 305.00709717 152 305 C152.00666183 305.60197708 152.01332367 306.20395416 152.02018738 306.82417297 C152.08697515 313.13541275 152.13197947 319.44655081 152.16479492 325.75805664 C152.1798061 328.10803308 152.20022135 330.45798186 152.22631836 332.80786133 C152.26304034 336.20140442 152.27980365 339.5945745 152.29296875 342.98828125 C152.30845261 344.02519608 152.32393646 345.0621109 152.33988953 346.13044739 C152.34332675 361.30271549 146.86841374 374.79014579 136.34765625 385.75 C125.20090936 396.43307189 113.31967407 401.72635152 97.9375 402.25 C92.15512426 402.59669491 89.26240646 403.57230537 84.984375 407.375 C74.99150239 415.55813978 62.15390324 416.29910416 49.85002136 416.26069641 C47.89108168 416.26643473 47.89108168 416.26643473 45.89256746 416.27228898 C42.28753479 416.28253341 38.68260198 416.28039627 35.07756126 416.27610838 C31.1817372 416.27363466 27.28593678 416.28266337 23.39012146 416.29014587 C15.76521596 416.30287725 8.14034571 416.30468849 0.51543137 416.30234561 C-5.68467477 416.30056044 -11.88477024 416.30231637 -18.08487511 416.30657005 C-19.41002238 416.30746284 -19.41002238 416.30746284 -20.7619403 416.30837366 C-22.55681772 416.30958545 -24.35169514 416.31079958 -26.14657255 416.31201603 C-42.96890606 416.32288569 -59.79121951 416.32073188 -76.61355414 416.31463119 C-91.98876693 416.30946333 -107.36391634 416.32071503 -122.73911659 416.33972941 C-138.54155886 416.35912171 -154.34397118 416.36736131 -170.14642543 416.36360615 C-179.01218196 416.36169612 -187.87788456 416.36416229 -196.74363136 416.37832069 C-204.29176135 416.39025327 -211.83980421 416.39161842 -219.38793544 416.37953053 C-223.23552252 416.37365481 -227.08295039 416.37250598 -230.93052673 416.38453293 C-235.11016656 416.39744549 -239.28942989 416.38689621 -243.46907043 416.3742218 C-245.27508585 416.38528323 -245.27508585 416.38528323 -247.11758643 416.39656812 C-263.05164065 416.29522079 -278.38065407 411.26215084 -290 400 C-299.89501154 388.95138284 -305.15535948 376.80648698 -305.14044189 362.0357666 C-305.14341302 361.11949383 -305.14638414 360.20322106 -305.1494453 359.25918245 C-305.15813357 356.18124265 -305.15964072 353.10334173 -305.16113281 350.02539062 C-305.16576128 347.82082537 -305.17078598 345.61626091 -305.17617798 343.41169739 C-305.18931029 337.4128491 -305.19574978 331.41401202 -305.20018864 325.4151516 C-305.20312097 321.66141485 -305.20722631 317.90768114 -305.21169281 314.15394592 C-305.22380801 303.74141342 -305.23418527 293.32888308 -305.2375679 282.91634369 C-305.23778747 282.24986766 -305.23800703 281.58339164 -305.23823325 280.89671937 C-305.23845153 280.22870776 -305.23866981 279.56069615 -305.2388947 278.87244177 C-305.23933815 277.51896508 -305.23978472 276.1654884 -305.24023438 274.81201172 C-305.2404558 274.14065038 -305.24067723 273.46928904 -305.24090537 272.77758342 C-305.24484007 261.93725308 -305.26225053 251.09699051 -305.2855939 240.25668627 C-305.30942007 229.10098011 -305.32151812 217.94530198 -305.32293582 206.78956938 C-305.32397906 200.53694473 -305.3297824 194.28441543 -305.34775543 188.03181458 C-305.36437344 182.13519554 -305.36632573 176.23874204 -305.35761642 170.34210777 C-305.35685306 168.19289897 -305.36109469 166.04368077 -305.37107468 163.89449501 C-305.4869335 137.35905009 -303.00494559 108.53941876 -283.62890625 88.34375 C-269.68454781 75.91192969 -251.41546145 68.39636112 -232.68359375 68.93505859 C-230.87402949 68.9674924 -229.06445882 68.99957023 -227.25488281 69.03134155 C-226.30891235 69.05148693 -225.36294189 69.07163231 -224.38830566 69.09238815 C-219.26322166 69.18973703 -214.13753709 69.21414488 -209.01171875 69.25 C-202.54093453 69.29722807 -196.07309065 69.36442496 -189.60400391 69.52441406 C-163.0046864 70.15430435 -141.85825445 68.80246121 -118.574646 55.17954826 C-111.94685453 51.30215062 -105.01350913 48.12909048 -98.03686523 44.93668747 C-94.51285268 43.31610976 -91.0075355 41.65585394 -87.5 40 C-86.08341386 39.33316225 -84.66675663 38.66647546 -83.25 38 C-82.54875 37.67 -81.8475 37.34 -81.125 37 C-74.75000001 34 -74.75000001 34 -72.62538147 33.00018311 C-71.20743955 32.33291392 -69.78950132 31.66563689 -68.37156677 30.99835205 C-64.84944159 29.34083977 -61.32725421 27.68345997 -57.80493164 26.02636719 C-51.19698707 22.91745762 -44.58968367 19.80720589 -37.98446655 16.69250488 C-34.88221276 15.2297271 -31.77962008 13.76766889 -28.67700195 12.30566406 C-27.20547863 11.61201238 -25.73411936 10.91801255 -24.26293945 10.22363281 C-2.60155485 0 -2.60155485 0 0 0 Z " fill="#755648" transform="translate(305,48)"/>
<path d="M0 0 C0.31453125 1.13695312 0.6290625 2.27390625 0.953125 3.4453125 C1.38538753 5.00521641 1.8176809 6.56511177 2.25 8.125 C2.45496094 8.86621094 2.65992188 9.60742188 2.87109375 10.37109375 C4.87361416 17.59230371 6.93516991 24.79641146 9 32 C9.54457352 31.77227402 10.08914703 31.54454803 10.65022278 31.30992126 C16.30677364 28.94669332 21.96872495 26.59679278 27.6340332 24.25463867 C29.7490631 23.37818224 31.86268077 22.49830991 33.97485352 21.61499023 C37.0069494 20.34764389 40.04387247 19.09257352 43.08203125 17.83984375 C44.02899368 17.44095444 44.97595612 17.04206512 45.95161438 16.63108826 C46.83230087 16.27063919 47.71298737 15.91019012 48.62036133 15.53881836 C49.39535477 15.21682968 50.17034821 14.894841 50.96882629 14.56309509 C53 14 53 14 56 15 C57.00981011 17.99244456 57.81293855 20.87502996 58.54370117 23.93847656 C58.77822495 24.87668747 59.01274872 25.81489838 59.25437927 26.78153992 C60.02992893 29.89824712 60.7866752 33.019194 61.54296875 36.140625 C62.075803 38.30221945 62.60961384 40.4635734 63.1443634 42.62469482 C64.26431572 47.16242749 65.37556786 51.7021724 66.48022461 56.24365234 C67.89655695 62.06547184 69.32922052 67.8831098 70.76780224 73.69946671 C71.87152839 78.16609233 72.96905061 82.63422271 74.0644474 87.10289764 C74.5906138 89.24823323 75.11812335 91.39323984 75.64699364 93.53791046 C76.3854167 96.53851281 77.11608134 99.54089662 77.84448242 102.54394531 C78.06418701 103.43141953 78.2838916 104.31889374 78.51025391 105.23326111 C79.47085608 109.22726396 80.29235725 112.85726233 80 117 C79.35933594 116.80664062 78.71867187 116.61328125 78.05859375 116.4140625 C77.19363281 116.15367187 76.32867187 115.89328125 75.4375 115.625 C74.16712891 115.24214844 74.16712891 115.24214844 72.87109375 114.8515625 C71.92363281 114.57054687 70.97617187 114.28953125 70 114 C69.03569785 113.65818003 68.0713957 113.31636005 67.07787228 112.9641819 C61.7682853 111.46427105 56.35872623 111.71219485 50.88294983 111.7215271 C49.05475579 111.7128385 49.05475579 111.7128385 47.18962854 111.70397437 C43.8191154 111.68993896 40.44880066 111.68474622 37.0782727 111.68332577 C33.43893759 111.67962375 29.79964785 111.66446428 26.16033936 111.65071106 C19.85913127 111.62845957 13.55793936 111.61343361 7.25670052 111.60334396 C-1.85377703 111.58874563 -10.96419819 111.56320557 -20.07464261 111.53501268 C-34.8564688 111.48956566 -49.63830312 111.45294221 -64.42016602 111.421875 C-78.77760241 111.3916809 -93.13501892 111.35732667 -107.49243164 111.31738281 C-108.37773026 111.31492126 -109.26302888 111.31245972 -110.17515474 111.30992357 C-114.61652965 111.29754881 -119.05790433 111.2850923 -123.4992789 111.27259517 C-160.33282517 111.16905867 -197.16639513 111.07984509 -234 111 C-231.00244732 108.69713164 -228.10266017 106.95526729 -224.6875 105.3203125 C-223.626521 104.81040771 -222.56554199 104.30050293 -221.47241211 103.77514648 C-220.32651611 103.23059814 -219.18062012 102.6860498 -218 102.125 C-216.79101175 101.54713471 -215.58211033 100.96908774 -214.37329102 100.39086914 C-199.46453165 93.27361483 -184.47750531 86.3186009 -169.44618225 79.46430969 C-167.62569723 78.63388481 -165.8061272 77.80145498 -163.98657227 76.96899414 C-161.71688278 75.93133553 -159.44532358 74.8977537 -157.17163086 73.86889648 C-155.64807983 73.17195679 -155.64807983 73.17195679 -154.09375 72.4609375 C-153.20365234 72.05665527 -152.31355469 71.65237305 -151.39648438 71.23583984 C-148.98995058 70.07927118 -148.98995058 70.07927118 -147.00537109 68.50268555 C-144.71363609 66.78541881 -142.426607 65.6825137 -139.8203125 64.49609375 C-138.76634277 64.01229248 -137.71237305 63.52849121 -136.62646484 63.0300293 C-135.47098145 62.50449463 -134.31549805 61.97895996 -133.125 61.4375 C-130.57676137 60.26858203 -128.03049634 59.09539651 -125.484375 57.921875 C-124.80784882 57.61046066 -124.13132263 57.29904633 -123.43429565 56.97819519 C-115.05067899 53.11260521 -106.71417465 49.14778956 -98.375 45.1875 C-95.11735963 43.64156415 -91.85949705 42.09609704 -88.6015625 40.55078125 C-87.79613007 40.1687001 -86.99069763 39.78661896 -86.16085815 39.39295959 C-74.58200401 33.90222964 -62.98327983 28.45370356 -51.38554382 23.00300598 C-46.13411924 20.53449638 -40.88513566 18.06083433 -35.63671875 15.5859375 C-33.31819099 14.49310998 -30.99961985 13.40037457 -28.68103027 12.30767822 C-27.20780829 11.61315013 -25.73474014 10.91829561 -24.26184082 10.2230835 C-2.60154576 0 -2.60154576 0 0 0 Z " fill="#16D992" transform="translate(305,48)"/>
<path d="M0 0 C10.12382934 6.74921956 10.12382934 6.74921956 13.5 9.40234375 C14.2425 9.98306641 14.985 10.56378906 15.75 11.16210938 C16.4925 11.74798828 17.235 12.33386719 18 12.9375 C18.7425 13.51951172 19.485 14.10152344 20.25 14.70117188 C21.74569301 15.87357707 23.2400872 17.04764118 24.7331543 18.22338867 C26.2839238 19.43878444 27.84037235 20.64695942 29.40161133 21.84887695 C42.16739794 31.67691373 52.24832388 42.54053134 55 59 C55.6360052 66.05004282 55.57630181 73.12915665 55.52148438 80.20166016 C55.50004389 83.49326251 55.52136302 86.7826827 55.546875 90.07421875 C55.57277686 109.43206057 52.25407709 124.08930932 38.6015625 138.609375 C23.37236744 152.60377046 6.1467663 153.61853329 -13.48828125 153.53125 C-15.64389724 153.53395046 -17.79951204 153.53783746 -19.9551239 153.54284668 C-24.44749684 153.54870933 -28.93954937 153.54027944 -33.43188477 153.52148438 C-39.17262995 153.49862792 -44.91262967 153.51188113 -50.65334797 153.53577423 C-55.09475782 153.5502611 -59.53599219 153.5456141 -63.97740746 153.53526306 C-66.09398679 153.53260735 -68.2105824 153.53582456 -70.32714272 153.54518127 C-73.28663759 153.55540228 -76.24493917 153.53977116 -79.2043457 153.51757812 C-80.06636597 153.52567505 -80.92838623 153.53377197 -81.81652832 153.54211426 C-90.77809035 153.4183518 -97.74626687 149.97058202 -104.2734375 143.9375 C-108.83663788 138.81680455 -111.09807148 132.66108195 -111.19287109 125.86108398 C-111.20893402 124.81246689 -111.22499695 123.76384979 -111.24154663 122.68345642 C-111.28617777 117.8728813 -111.3270902 113.06244314 -111.35009766 108.25170898 C-111.36661801 105.72134173 -111.39385553 103.19102039 -111.43212891 100.66088867 C-111.48717102 97.00154545 -111.50881804 93.34329642 -111.5234375 89.68359375 C-111.54610687 88.56343369 -111.56877625 87.44327362 -111.59213257 86.28916931 C-111.56747842 77.02726966 -109.03203347 70.00925189 -102.75 63.125 C-96.21570696 57.26707968 -89.33368269 55.39275649 -80.71655273 55.54589844 C-79.39784935 55.54502228 -79.39784935 55.54502228 -78.05250549 55.54412842 C-75.17911731 55.54689017 -72.30679816 55.57789064 -69.43359375 55.609375 C-67.42864041 55.6168442 -65.42367971 55.62253392 -63.41871643 55.62652588 C-58.16608181 55.64172872 -52.91389632 55.68096412 -47.66143799 55.7253418 C-41.34629343 55.77364301 -35.03099791 55.79185399 -28.71572113 55.81515503 C-19.14350264 55.85381854 -9.57226775 55.93050985 0 56 C0 37.52 0 19.04 0 0 Z " fill="#FEC728" transform="translate(457,200)"/>
<path d="M0 0 C0.31453125 1.13695312 0.6290625 2.27390625 0.953125 3.4453125 C1.38538753 5.00521641 1.8176809 6.56511177 2.25 8.125 C2.45496094 8.86621094 2.65992188 9.60742188 2.87109375 10.37109375 C4.87361416 17.59230371 6.93516991 24.79641146 9 32 C9.54457352 31.77227402 10.08914703 31.54454803 10.65022278 31.30992126 C16.30677364 28.94669332 21.96872495 26.59679278 27.6340332 24.25463867 C29.7490631 23.37818224 31.86268077 22.49830991 33.97485352 21.61499023 C37.0069494 20.34764389 40.04387247 19.09257352 43.08203125 17.83984375 C44.02899368 17.44095444 44.97595612 17.04206512 45.95161438 16.63108826 C46.83230087 16.27063919 47.71298737 15.91019012 48.62036133 15.53881836 C49.39535477 15.21682968 50.17034821 14.894841 50.96882629 14.56309509 C53 14 53 14 56 15 C57.00981011 17.99244456 57.81293855 20.87502996 58.54370117 23.93847656 C58.77822495 24.87668747 59.01274872 25.81489838 59.25437927 26.78153992 C60.02992893 29.89824712 60.7866752 33.019194 61.54296875 36.140625 C62.075803 38.30221945 62.60961384 40.4635734 63.1443634 42.62469482 C64.26431572 47.16242749 65.37556786 51.7021724 66.48022461 56.24365234 C67.89655695 62.06547184 69.32922052 67.8831098 70.76780224 73.69946671 C71.87152839 78.16609233 72.96905061 82.63422271 74.0644474 87.10289764 C74.5906138 89.24823323 75.11812335 91.39323984 75.64699364 93.53791046 C76.3854167 96.53851281 77.11608134 99.54089662 77.84448242 102.54394531 C78.06418701 103.43141953 78.2838916 104.31889374 78.51025391 105.23326111 C79.47085608 109.22726396 80.29235725 112.85726233 80 117 C79.35933594 116.80664062 78.71867188 116.61328125 78.05859375 116.4140625 C77.19363281 116.15367187 76.32867187 115.89328125 75.4375 115.625 C74.59058594 115.36976563 73.74367188 115.11453125 72.87109375 114.8515625 C71.92363281 114.57054687 70.97617187 114.28953125 70 114 C68.44345703 113.49146484 68.44345703 113.49146484 66.85546875 112.97265625 C62.60972006 111.90154032 58.79471895 111.6528671 54.44140625 111.5859375 C53.65225327 111.56657135 52.86310028 111.5472052 52.05003357 111.5272522 C49.55429553 111.46795176 47.05851011 111.4212715 44.5625 111.375 C42.86000704 111.33677449 41.15753248 111.29772016 39.45507812 111.2578125 C35.30353659 111.16229172 31.15190467 111.07808031 27 111 C25.71221521 105.9478041 24.43064491 100.89408779 23.15478516 95.83886719 C22.7199639 94.11968577 22.28345341 92.40093067 21.84521484 90.68261719 C21.21526653 88.21139138 20.59142711 85.73869155 19.96875 83.265625 C19.77188599 82.49881409 19.57502197 81.73200317 19.37219238 80.94195557 C18.5086877 77.48938468 18 74.58348969 18 71 C17.04368683 70.84306923 17.04368683 70.84306923 16.0680542 70.68296814 C11.91648556 69.75880288 7.94383435 68.41569255 3.91113281 67.07250977 C3.00492691 66.77321564 2.09872101 66.47392151 1.16505432 66.16555786 C-1.82334904 65.17744158 -4.81020825 64.18475832 -7.796875 63.19140625 C-9.87240077 62.50255265 -11.94794216 61.81374613 -14.02349854 61.12498474 C-18.36846278 59.68215559 -22.71254359 58.23669926 -27.05615234 56.78979492 C-32.63499357 54.93198218 -38.21700658 53.08390005 -43.79984665 51.23814487 C-48.08389591 49.82001347 -52.36569601 48.39518735 -56.64688873 46.96845818 C-58.70505874 46.28380818 -60.76405719 45.60164357 -62.82387543 44.92196846 C-65.69455289 43.97397267 -68.56195422 43.01666031 -71.42871094 42.05688477 C-72.28687912 41.77577347 -73.1450473 41.49466217 -74.02922058 41.20503235 C-79.88586152 39.22827696 -79.88586152 39.22827696 -81 37 C-69.00147637 31.33020497 -57.00142831 25.66364404 -45 20 C-44.18464783 19.6151947 -43.36929565 19.2303894 -42.52923584 18.83392334 C-37.85613692 16.62862882 -33.18246502 14.42455609 -28.50799561 12.22216797 C-27.05784136 11.53875592 -25.60784636 10.85500585 -24.15802002 10.17089844 C-2.60060037 0 -2.60060037 0 0 0 Z " fill="#10AD71" transform="translate(305,48)"/>
<path d="M0 0 C13.86 0 27.72 0 42 0 C42.06917173 6.91973442 42.12881673 13.83825094 42.16479492 20.75805664 C42.1798061 23.10803308 42.20022135 25.45798186 42.22631836 27.80786133 C42.26304034 31.20140442 42.27980365 34.5945745 42.29296875 37.98828125 C42.30845261 39.02519608 42.32393646 40.0621109 42.33988953 41.13044739 C42.34332675 56.30271549 36.86841374 69.79014579 26.34765625 80.75 C14.10504806 92.48334828 1.34999961 97.34009163 -15.47265625 97.0703125 C-16.30667969 97.04710937 -17.14070313 97.02390625 -18 97 C-17.63648438 96.52691406 -17.27296875 96.05382812 -16.8984375 95.56640625 C-15.2453918 93.39201536 -13.61875605 91.20003663 -12 89 C-11.4740625 88.29101562 -10.948125 87.58203125 -10.40625 86.8515625 C-4.13312937 77.98597875 -0.94439941 68.40150031 -0.79467773 57.55737305 C-0.77473251 56.27642258 -0.75478729 54.99547211 -0.73423767 53.67570496 C-0.71725722 52.28771076 -0.70037827 50.89971533 -0.68359375 49.51171875 C-0.66300576 48.08396325 -0.64200882 46.65621359 -0.62062073 45.22846985 C-0.56559047 41.48193105 -0.51609773 37.73533899 -0.46777344 33.9887085 C-0.40855583 29.48733482 -0.34243329 24.98605787 -0.27747345 20.4847641 C-0.17970376 13.65656879 -0.09068397 6.82830965 0 0 Z " fill="#67493E" transform="translate(415,353)"/>
<path d="M0 0 C7.76487208 3.64975965 15.08333229 7.94176397 22.38769531 12.4206543 C24.25858313 13.56776262 26.13286337 14.70915373 28.0078125 15.84960938 C31.3472258 17.88613507 34.68418688 19.9251302 38 22 C39.08796875 22.65766357 40.1759375 23.31532715 41.296875 23.99291992 C44.06094409 26.04525121 44.82191052 26.79724089 45.609375 30.046875 C45.90521484 31.1915625 45.90521484 31.1915625 46.20703125 32.359375 C46.38621094 33.14828125 46.56539063 33.9371875 46.75 34.75 C47.04197266 35.91015625 47.04197266 35.91015625 47.33984375 37.09375 C47.72599931 38.63837224 48.10048433 40.18596182 48.46289062 41.73632812 C48.98223233 43.92511733 49.55913517 46.09268931 50.140625 48.265625 C50.8555202 51.37216959 51.1971879 53.84499358 51 57 C50.35933594 56.80664062 49.71867187 56.61328125 49.05859375 56.4140625 C48.19363281 56.15367187 47.32867187 55.89328125 46.4375 55.625 C45.59058594 55.36976563 44.74367188 55.11453125 43.87109375 54.8515625 C42.92363281 54.57054687 41.97617187 54.28953125 41 54 C39.453125 53.4740625 39.453125 53.4740625 37.875 52.9375 C32.76269809 51.70065276 27.80458257 51.5387085 22.5625 51.375 C21.54478516 51.33632812 20.52707031 51.29765625 19.47851562 51.2578125 C16.98585064 51.16419128 14.4931805 51.07846007 12 51 C9.09200592 42.89714271 7.01369438 34.61319501 4.9284668 26.26977539 C4.31089485 23.80609658 3.6820457 21.34546836 3.05273438 18.88476562 C2.65555935 17.30486096 2.25905155 15.72478839 1.86328125 14.14453125 C1.6758284 13.4162764 1.48837555 12.68802155 1.29524231 11.93769836 C0.29217792 7.87114185 -0.19572092 4.18645809 0 0 Z " fill="#16D891" transform="translate(334,108)"/>
<path d="M0 0 C6.66666667 27.33333333 13.33333333 54.66666667 20 82 C15.38 82 10.76 82 6 82 C3.49576329 72.14507563 1.0003682 62.2879594 -1.48368931 52.42792797 C-2.63735288 47.84984076 -3.79407527 43.27257172 -4.95776367 38.69702148 C-6.08017654 34.28329564 -7.19458591 29.86762042 -8.30341911 25.45046425 C-8.72837426 23.7636011 -9.15623328 22.07746682 -9.58700752 20.39208031 C-10.18878287 18.03561633 -10.78028299 15.67679774 -11.36938477 13.31713867 C-11.55064407 12.61726837 -11.73190338 11.91739807 -11.9186554 11.19631958 C-12.72531974 7.92068727 -13.09061967 6.27185902 -12 3 C-7.80006603 0.81926505 -4.69247173 -0.16989984 0 0 Z " fill="#098452" transform="translate(326,77)"/>
<path d="M0 0 C4.38410756 2.19205378 7.13092657 4.43115383 9 9 C9.53647806 14.63301965 9.16601282 18.13790888 6 23 C2.75293595 25.94265179 0.08647349 26.918002 -4.3125 27.25 C-9.74249192 26.88186495 -12.68116251 25.42295624 -16.375 21.4375 C-18.55517813 16.82558473 -19.06693604 13.01064778 -18 8 C-13.75492014 0.62766695 -8.18503212 -1.00738857 0 0 Z " fill="#F2B02B" transform="translate(399,291)"/>
</svg>
